<svg width="638" height="400" viewBox="0 0 638 400" fill="none" xmlns="http://www.w3.org/2000/svg">
<path d="M375 0C444.036 0 500 55.9644 500 125V390C500 395.523 495.523 400 490 400H425V125C425 97.3858 402.614 75 375 75C347.386 75 325 97.3858 325 125V400H260C254.477 400 250 395.523 250 390V125C250 55.9644 305.964 0 375 0Z" fill="#00FF90"/>
<path d="M638 37.5C638 58.2107 621.211 75 600.5 75C579.789 75 563 58.2107 563 37.5C563 16.7893 579.789 0 600.5 0C621.211 0 638 16.7893 638 37.5Z" fill="#FF5912"/>
<path d="M240 0C245.523 2.89916e-06 250 4.47715 250 10V75H201C131.964 75 76 130.964 76 200C76 269.036 131.964 325 201 325H250V390C250 395.523 245.523 400 240 400H200C89.5431 400 0 310.457 0 200C0 89.5431 89.5431 1.61067e-06 200 0H240Z" fill="#0077B6"/>
<path d="M70.7808 208.565C70.7808 208.565 264.304 292.795 433.459 277.012C602.614 261.23 599.305 140 599.305 140" stroke="url(#paint0_linear_6_290)" stroke-width="75" stroke-linecap="round" stroke-linejoin="round"/>
<defs>
<linearGradient id="paint0_linear_6_290" x1="58.7536" y1="190.03" x2="600.05" y2="139.526" gradientUnits="userSpaceOnUse">
<stop stop-color="#0077B6"/>
<stop offset="0.5" stop-color="#00FF90"/>
<stop offset="1" stop-color="#FF5912"/>
</linearGradient>
</defs>
</svg>
