<svg width="159" height="100" viewBox="0 0 159 100" fill="none" xmlns="http://www.w3.org/2000/svg">
<path d="M60.0498 0C61.4029 0 62.5 1.0971 62.5 2.4502V18.75H49.625C32.7113 18.75 19 32.4613 19 49.375V50.625C19 67.5387 32.7113 81.25 49.625 81.25H62.5V97.5498C62.5 98.9029 61.4029 100 60.0498 100H49C21.938 100 5.15475e-07 78.062 0 51V49C5.15475e-07 21.938 21.938 0 49 0H60.0498Z" fill="#0077B6"/>
<path d="M93.75 0C111.009 0 125 13.9911 125 31.25V97.5498C125 98.9029 123.903 100 122.55 100H106.25V31C106.25 24.2345 100.765 18.75 94 18.75H93.5C86.7345 18.75 81.25 24.2345 81.25 31V100H64.9502C63.5971 100 62.5 98.9029 62.5 97.5498V31.25C62.5 13.9911 76.4911 0 93.75 0Z" fill="#00FF90"/>
<path d="M14.75 53.3599C14.75 53.3599 46.1657 66.0883 92.0379 56.4445C137.91 46.8008 145.349 28.1283 145.349 28.1283" stroke="#FF5912" stroke-width="18.375" stroke-linecap="round" stroke-linejoin="round"/>
<path d="M158.25 9.375C158.25 14.5527 154.053 18.75 148.875 18.75C143.697 18.75 139.5 14.5527 139.5 9.375C139.5 4.19733 143.697 0 148.875 0C154.053 0 158.25 4.19733 158.25 9.375Z" fill="#FF5912"/>
</svg>
